<svg width="468" height="291" viewBox="0 0 468 291" fill="none" xmlns="http://www.w3.org/2000/svg">
<rect x="4" y="4" width="460" height="283" rx="20" fill="#343434" stroke="#D7D7D7" stroke-width="8"/>
<path d="M0 24C0 10.7452 10.7452 0 24 0H444C457.255 0 468 10.7452 468 24V58H0V24Z" fill="#D7D7D7"/>
<path d="M220.368 195.904H218.64C216.336 200.704 213.12 204.256 208.992 206.56C204.96 208.864 200.688 210.016 196.176 210.016C191.472 210.016 187.104 209.248 183.072 207.712C179.04 206.08 175.488 203.728 172.416 200.656C169.44 197.488 167.088 193.648 165.36 189.136C163.632 184.624 162.768 179.392 162.768 173.44V171.136C162.768 165.28 163.632 160.096 165.36 155.584C167.088 151.072 169.44 147.28 172.416 144.208C175.488 141.04 179.04 138.64 183.072 137.008C187.104 135.376 191.376 134.56 195.888 134.56C200.784 134.56 205.2 135.664 209.136 137.872C213.168 139.984 216.336 143.296 218.64 147.808H220.368V136.576H231.6V193.312C231.6 196.192 232.896 197.632 235.488 197.632H239.088V208H231.456C228.192 208 225.504 206.944 223.392 204.832C221.376 202.72 220.368 200.032 220.368 196.768V195.904ZM197.328 199.36C200.688 199.36 203.76 198.736 206.544 197.488C209.424 196.24 211.872 194.464 213.888 192.16C215.904 189.856 217.488 187.12 218.64 183.952C219.792 180.688 220.368 177.088 220.368 173.152V171.424C220.368 167.584 219.792 164.08 218.64 160.912C217.488 157.648 215.856 154.864 213.744 152.56C211.728 150.256 209.28 148.48 206.4 147.232C203.616 145.888 200.592 145.216 197.328 145.216C193.968 145.216 190.896 145.84 188.112 147.088C185.328 148.336 182.88 150.112 180.768 152.416C178.752 154.624 177.168 157.36 176.016 160.624C174.864 163.792 174.288 167.296 174.288 171.136V173.44C174.288 181.6 176.4 187.984 180.624 192.592C184.944 197.104 190.512 199.36 197.328 199.36Z" fill="white"/>
<path d="M278.156 199.936C278.156 197.152 279.116 194.8 281.036 192.88C283.052 190.864 285.452 189.856 288.236 189.856C291.02 189.856 293.372 190.864 295.292 192.88C297.308 194.8 298.316 197.152 298.316 199.936C298.316 202.72 297.308 205.12 295.292 207.136C293.372 209.056 291.02 210.016 288.236 210.016C285.452 210.016 283.052 209.056 281.036 207.136C279.116 205.12 278.156 202.72 278.156 199.936ZM278.156 144.64C278.156 141.856 279.116 139.504 281.036 137.584C283.052 135.568 285.452 134.56 288.236 134.56C291.02 134.56 293.372 135.568 295.292 137.584C297.308 139.504 298.316 141.856 298.316 144.64C298.316 147.424 297.308 149.824 295.292 151.84C293.372 153.76 291.02 154.72 288.236 154.72C285.452 154.72 283.052 153.76 281.036 151.84C279.116 149.824 278.156 147.424 278.156 144.64ZM353.512 236.8H342.28V136.576H353.512V147.808H355.24C357.736 143.488 361.192 140.224 365.608 138.016C370.024 135.712 374.824 134.56 380.008 134.56C384.424 134.56 388.6 135.376 392.536 137.008C396.472 138.64 399.928 140.992 402.904 144.064C405.976 147.136 408.376 150.928 410.104 155.44C411.928 159.952 412.84 165.088 412.84 170.848V173.728C412.84 179.584 411.976 184.768 410.248 189.28C408.52 193.792 406.12 197.584 403.048 200.656C400.072 203.728 396.568 206.08 392.536 207.712C388.504 209.248 384.232 210.016 379.72 210.016C377.416 210.016 375.064 209.728 372.664 209.152C370.264 208.672 367.96 207.904 365.752 206.848C363.64 205.696 361.672 204.352 359.848 202.816C358.024 201.184 356.488 199.264 355.24 197.056H353.512V236.8ZM377.416 199.36C380.872 199.36 384.04 198.784 386.92 197.632C389.8 196.384 392.296 194.656 394.408 192.448C396.616 190.24 398.296 187.552 399.448 184.384C400.696 181.216 401.32 177.664 401.32 173.728V170.848C401.32 167.008 400.696 163.552 399.448 160.48C398.296 157.312 396.616 154.624 394.408 152.416C392.296 150.112 389.752 148.336 386.776 147.088C383.896 145.84 380.776 145.216 377.416 145.216C374.056 145.216 370.936 145.888 368.056 147.232C365.176 148.48 362.632 150.256 360.424 152.56C358.312 154.864 356.632 157.648 355.384 160.912C354.136 164.08 353.512 167.584 353.512 171.424V173.152C353.512 177.088 354.136 180.688 355.384 183.952C356.632 187.12 358.312 189.856 360.424 192.16C362.632 194.464 365.176 196.24 368.056 197.488C370.936 198.736 374.056 199.36 377.416 199.36Z" fill="#FAFF00"/>
<path d="M61.55 202.5V189.9L119.75 170.4V168.6L61.55 149.1V136.5L124.25 158.1V180.9L61.55 202.5Z" fill="#03E1FF"/>
<path d="M64.55 206.5V193.9L122.75 174.4V172.6L64.55 153.1V140.5L127.25 162.1V184.9L64.55 206.5Z" fill="#FF00B8"/>
<path d="M63.968 202.28V190.184L119.84 171.464V169.736L63.968 151.016V138.92L124.16 159.656V181.544L63.968 202.28Z" fill="white"/>
<line x1="331.5" y1="42.5" x2="358.5" y2="42.5" stroke="white" stroke-width="5" stroke-linecap="round"/>
<rect x="373.5" y="15.5" width="27" height="27" rx="9.5" stroke="white" stroke-width="5"/>
<circle cx="429" cy="29" r="16" fill="#AA0000"/>
</svg>
