<svg xmlns="http://www.w3.org/2000/svg" version="1.1" xmlns:xlink="http://www.w3.org/1999/xlink" xmlns:svgjs="http://svgjs.com/svgjs" width="381" height="381"><svg width="381" height="381" viewBox="0 0 381 381" fill="none" xmlns="http://www.w3.org/2000/svg">
<rect width="381" height="381" fill="black"></rect>
<path d="M177.368 222.904H175.64C173.336 227.704 170.12 231.256 165.992 233.56C161.96 235.864 157.688 237.016 153.176 237.016C148.472 237.016 144.104 236.248 140.072 234.712C136.04 233.08 132.488 230.728 129.416 227.656C126.44 224.488 124.088 220.648 122.36 216.136C120.632 211.624 119.768 206.392 119.768 200.44V198.136C119.768 192.28 120.632 187.096 122.36 182.584C124.088 178.072 126.44 174.28 129.416 171.208C132.488 168.04 136.04 165.64 140.072 164.008C144.104 162.376 148.376 161.56 152.888 161.56C157.784 161.56 162.2 162.664 166.136 164.872C170.168 166.984 173.336 170.296 175.64 174.808H177.368V163.576H188.6V220.312C188.6 223.192 189.896 224.632 192.488 224.632H196.088V235H188.456C185.192 235 182.504 233.944 180.392 231.832C178.376 229.72 177.368 227.032 177.368 223.768V222.904ZM154.328 226.36C157.688 226.36 160.76 225.736 163.544 224.488C166.424 223.24 168.872 221.464 170.888 219.16C172.904 216.856 174.488 214.12 175.64 210.952C176.792 207.688 177.368 204.088 177.368 200.152V198.424C177.368 194.584 176.792 191.08 175.64 187.912C174.488 184.648 172.856 181.864 170.744 179.56C168.728 177.256 166.28 175.48 163.4 174.232C160.616 172.888 157.592 172.216 154.328 172.216C150.968 172.216 147.896 172.84 145.112 174.088C142.328 175.336 139.88 177.112 137.768 179.416C135.752 181.624 134.168 184.36 133.016 187.624C131.864 190.792 131.288 194.296 131.288 198.136V200.44C131.288 208.6 133.4 214.984 137.624 219.592C141.944 224.104 147.512 226.36 154.328 226.36Z" fill="white"></path>
<path d="M235.156 226.936C235.156 224.152 236.116 221.8 238.036 219.88C240.052 217.864 242.452 216.856 245.236 216.856C248.02 216.856 250.372 217.864 252.292 219.88C254.308 221.8 255.316 224.152 255.316 226.936C255.316 229.72 254.308 232.12 252.292 234.136C250.372 236.056 248.02 237.016 245.236 237.016C242.452 237.016 240.052 236.056 238.036 234.136C236.116 232.12 235.156 229.72 235.156 226.936ZM235.156 171.64C235.156 168.856 236.116 166.504 238.036 164.584C240.052 162.568 242.452 161.56 245.236 161.56C248.02 161.56 250.372 162.568 252.292 164.584C254.308 166.504 255.316 168.856 255.316 171.64C255.316 174.424 254.308 176.824 252.292 178.84C250.372 180.76 248.02 181.72 245.236 181.72C242.452 181.72 240.052 180.76 238.036 178.84C236.116 176.824 235.156 174.424 235.156 171.64ZM310.512 263.8H299.28V163.576H310.512V174.808H312.24C314.736 170.488 318.192 167.224 322.608 165.016C327.024 162.712 331.824 161.56 337.008 161.56C341.424 161.56 345.6 162.376 349.536 164.008C353.472 165.64 356.928 167.992 359.904 171.064C362.976 174.136 365.376 177.928 367.104 182.44C368.928 186.952 369.84 192.088 369.84 197.848V200.728C369.84 206.584 368.976 211.768 367.248 216.28C365.52 220.792 363.12 224.584 360.048 227.656C357.072 230.728 353.568 233.08 349.536 234.712C345.504 236.248 341.232 237.016 336.72 237.016C334.416 237.016 332.064 236.728 329.664 236.152C327.264 235.672 324.96 234.904 322.752 233.848C320.64 232.696 318.672 231.352 316.848 229.816C315.024 228.184 313.488 226.264 312.24 224.056H310.512V263.8ZM334.416 226.36C337.872 226.36 341.04 225.784 343.92 224.632C346.8 223.384 349.296 221.656 351.408 219.448C353.616 217.24 355.296 214.552 356.448 211.384C357.696 208.216 358.32 204.664 358.32 200.728V197.848C358.32 194.008 357.696 190.552 356.448 187.48C355.296 184.312 353.616 181.624 351.408 179.416C349.296 177.112 346.752 175.336 343.776 174.088C340.896 172.84 337.776 172.216 334.416 172.216C331.056 172.216 327.936 172.888 325.056 174.232C322.176 175.48 319.632 177.256 317.424 179.56C315.312 181.864 313.632 184.648 312.384 187.912C311.136 191.08 310.512 194.584 310.512 198.424V200.152C310.512 204.088 311.136 207.688 312.384 210.952C313.632 214.12 315.312 216.856 317.424 219.16C319.632 221.464 322.176 223.24 325.056 224.488C327.936 225.736 331.056 226.36 334.416 226.36Z" fill="#FAFF00"></path>
<path d="M18.55 229.5V216.9L76.75 197.4V195.6L18.55 176.1V163.5L81.25 185.1V207.9L18.55 229.5Z" fill="#03E1FF"></path>
<path d="M21.55 233.5V220.9L79.75 201.4V199.6L21.55 180.1V167.5L84.25 189.1V211.9L21.55 233.5Z" fill="#FF00B8"></path>
<path d="M20.968 229.28V217.184L76.84 198.464V196.736L20.968 178.016V165.92L81.16 186.656V208.544L20.968 229.28Z" fill="white"></path>
</svg><style>@media (prefers-color-scheme: light) { :root { filter: none; } }
</style></svg>